<?xml version="1.0" encoding="UTF-8" standalone="no"?>
<svg
   xmlns:dc="http://purl.org/dc/elements/1.1/"
   xmlns:cc="http://creativecommons.org/ns#"
   xmlns:rdf="http://www.w3.org/1999/02/22-rdf-syntax-ns#"
   xmlns:svg="http://www.w3.org/2000/svg"
   xmlns="http://www.w3.org/2000/svg"
   xmlns:sodipodi="http://sodipodi.sourceforge.net/DTD/sodipodi-0.dtd"
   xmlns:inkscape="http://www.inkscape.org/namespaces/inkscape"
   inkscape:version="1.0 (4035a4fb49, 2020-05-01)"
   sodipodi:docname="morespacer2.svg"
   width="30"
   height="460.23633"
   viewBox="0 0 7.9375002 121.77087"
   version="1.1"
   id="svg8">
  <metadata
     id="metadata16">
    <rdf:RDF>
      <cc:Work
         rdf:about="">
        <dc:format>image/svg+xml</dc:format>
        <dc:type
           rdf:resource="http://purl.org/dc/dcmitype/StillImage" />
        <dc:title></dc:title>
      </cc:Work>
    </rdf:RDF>
  </metadata>
  <defs
     id="defs14" />
  <sodipodi:namedview
     inkscape:current-layer="svg8"
     inkscape:window-maximized="1"
     inkscape:window-y="-8"
     inkscape:window-x="-8"
     inkscape:cy="262.25865"
     inkscape:cx="-107.42481"
     inkscape:zoom="1.9111114"
     fit-margin-bottom="0"
     fit-margin-right="0"
     fit-margin-left="0"
     fit-margin-top="0"
     inkscape:guide-bbox="true"
     showguides="true"
     showgrid="false"
     id="namedview12"
     inkscape:window-height="1027"
     inkscape:window-width="1920"
     inkscape:pageshadow="2"
     inkscape:pageopacity="0"
     guidetolerance="10"
     gridtolerance="10"
     objecttolerance="10"
     borderopacity="1"
     bordercolor="#666666"
     pagecolor="#ffffff">
    <sodipodi:guide
       id="guide870"
       orientation="1,0"
       position="3.9647566,112.8624" />
  </sodipodi:namedview>
  <path
     d="M 0,0 V 7.9375002 L 3.964616,10.645862 7.9375002,7.9375002 V 0 Z m 0,15.875 v 7.937501 l 3.964616,2.708362 3.9728842,-2.708362 V 15.875 Z m 0,15.875001 v 7.9375 l 3.964616,2.708362 3.9728842,-2.708362 v -7.9375 z m 0,15.875 v 7.9375 l 3.964616,2.708363 3.9728842,-2.708363 v -7.9375 z m 0,15.875001 v 7.9375 l 3.964616,2.708362 3.9728842,-2.708362 v -7.9375 z m 0,15.875 v 7.9375 l 3.964616,2.708363 3.9728842,-2.708363 v -7.9375 z m 0,15.875 v 7.937498 l 3.964616,2.70836 3.9728842,-2.70836 V 95.250002 Z M 0,111.125 v 7.9375 l 3.964616,2.70837 3.9728842,-2.70837 v -7.9375 z"
     style="fill:#171717;fill-opacity:1;stroke-width:0.796875;stroke-linecap:round;stroke-linejoin:round;paint-order:stroke fill markers"
     id="rect880" />
</svg>
